<svg xmlns="http://www.w3.org/2000/svg" viewBox="0 0 24 24" width="24" height="24">
  <defs>
    <clipPath id="left-half">
      <rect x="0" y="0" width="12" height="24"/>
    </clipPath>
    <clipPath id="right-half">
      <rect x="12" y="0" width="12" height="24"/>
    </clipPath>
  </defs>
  <!-- Left Half (Yellow) -->
  <path fill="#F8B72A" clip-path="url(#left-half)" d="M12 17.27L18.18 21l-1.64-7.03L22 9.24l-7.19-.61L12 2 9.19 8.63 2 9.24l5.46 4.73L5.82 21z"/>
  <!-- Right Half (Gray) -->
  <path fill="#E0E0E0" clip-path="url(#right-half)" d="M12 17.27L18.18 21l-1.64-7.03L22 9.24l-7.19-.61L12 2 9.19 8.63 2 9.24l5.46 4.73L5.82 21z"/>
  <!-- Outline -->
  <path fill="none" stroke="#C4C4C4" stroke-width="0.5" d="M12 17.27L18.18 21l-1.64-7.03L22 9.24l-7.19-.61L12 2 9.19 8.63 2 9.24l5.46 4.73L5.82 21z"/>
</svg>